{
  "asset": {
    "version": "2.0",
    "generator": "GLTFExporter"
  },
  "scenes": [
    {
      "nodes": [
        1
      ],
      "name": "Scene"
    }
  ],
  "scene": 0,
  "nodes": [
    {
      "name": "node_MeshObject1576788224-PolyPaper17",
      "extras": {
        "name": "node_MeshObject1576788224-PolyPaper17"
      },
      "mesh": 0
    },
    {
      "matrix": [
        0.9999747493886316,
        -0.003876550114998882,
        0.005955916751366572,
        0,
        0.003856765091268434,
        0.9999870187710717,
        0.00332981266366108,
        0,
        -0.005968747621911984,
        -0.0033067580120424087,
        0.9999767194306454,
        0,
        -1.0683225502414184,
        0,
        -1.3834530091023312,
        1
      ],
      "name": "model.gltf",
      "children": [
        0
      ]
    }
  ],
  "bufferViews": [
    {
      "buffer": 0,
      "byteOffset": 0,
      "byteLength": 53120,
      "target": 34962,
      "byteStride": 16
    },
    {
      "buffer": 0,
      "byteOffset": 53120,
      "byteLength": 39840,
      "target": 34962,
      "byteStride": 12
    },
    {
      "buffer": 0,
      "byteOffset": 92960,
      "byteLength": 39840,
      "target": 34962,
      "byteStride": 12
    },
    {
      "buffer": 0,
      "byteOffset": 132800,
      "byteLength": 9960,
      "target": 34963
    }
  ],
  "buffers": [
    {
      "byteLength": 142760,
      "uri": "data:application/octet-stream;base64,"
    }
  ],
  "accessors": [
    {
      "bufferView": 0,
      "componentType": 5126,
      "count": 3320,
      "max": [
        0.3488648533821106,
        0.3488648533821106,
        0.3488648533821106,
        1
      ],
      "min": [
        0.05637409910559654,
        0.10114516317844391,
        0.12752977013587952,
        1
      ],
      "type": "VEC4"
    },
    {
      "bufferView": 1,
      "componentType": 5126,
      "count": 3320,
      "max": [
        1,
        1,
        1
      ],
      "min": [
        -1,
        -1,
        -1
      ],
      "type": "VEC3"
    },
    {
      "bufferView": 2,
      "componentType": 5126,
      "count": 3320,
      "max": [
        0.9050377011299133,
        2.019977331161499,
        1.9800159931182861
      ],
      "min": [
        0.5216296315193176,
        0.5649635791778564,
        1.309969186782837
      ],
      "type": "VEC3"
    },
    {
      "bufferView": 3,
      "componentType": 5123,
      "count": 4980,
      "max": [
        3319
      ],
      "min": [
        0
      ],
      "type": "SCALAR"
    }
  ],
  "materials": [
    {
      "pbrMetallicRoughness": {
        "metallicFactor": 0,
        "roughnessFactor": 0.6
      },
      "name": "BlocksPaper"
    }
  ],
  "meshes": [
    {
      "primitives": [
        {
          "mode": 4,
          "attributes": {
            "COLOR_0": 0,
            "NORMAL": 1,
            "POSITION": 2
          },
          "indices": 3,
          "material": 0
        }
      ]
    }
  ]
}